<?xml version="1.0" encoding="utf-8"?>
<!-- Generator: Adobe Illustrator 19.0.0, SVG Export Plug-In . SVG Version: 6.00 Build 0)  -->
<svg version="1.1" id="hybond" xmlns="http://www.w3.org/2000/svg" xmlns:xlink="http://www.w3.org/1999/xlink" x="0px" y="0px"
	 viewBox="-97 312.3 604.6 176.7" style="enable-background:new -97 312.3 604.6 176.7;" xml:space="preserve">
<style type="text/css">
	.st0{enable-background:new    ;}
	.st1{fill:#FFFFFF;}
</style>
<g>
	<g class="st0">
		<path class="st1" d="M-97,454.3V316l16.9-2.9v48.4c3.2-1.2,6.5-2.2,10.1-2.8c3.6-0.7,7.1-1,10.6-1c7.5,0,13.8,1.1,18.7,3.2
			c5,2.1,8.9,5.1,11.9,8.9s5.1,8.4,6.3,13.7c1.2,5.3,1.8,11.2,1.8,17.7v53.1h-16.9v-49.5c0-5.8-0.4-10.8-1.2-14.9s-2.1-7.5-3.9-10
			c-1.8-2.5-4.2-4.4-7.3-5.6c-3-1.2-6.8-1.7-11.3-1.7c-1.8,0-3.7,0.1-5.6,0.4c-1.9,0.2-3.8,0.5-5.6,0.8c-1.8,0.3-3.3,0.6-4.7,1
			c-1.4,0.4-2.4,0.7-3,0.9v78.6L-97,454.3L-97,454.3z"/>
		<path class="st1" d="M-7.3,472c1.3,0.6,3.1,1.2,5.2,1.7s4.2,0.8,6.3,0.8c6.7,0,11.9-1.5,15.7-4.5s7.2-7.8,10.2-14.5
			c-7.6-14.6-14.8-30-21.4-46.3s-12.1-32.9-16.5-49.6h18.2c1.3,5.5,2.9,11.3,4.8,17.7c1.9,6.3,4,12.8,6.3,19.5s4.8,13.3,7.5,20
			s5.5,13.1,8.4,19.3c4.6-12.7,8.6-25.4,12-37.9s6.6-25.4,9.6-38.6h17.5c-4.4,17.8-9.2,35-14.6,51.4c-5.3,16.4-11.1,31.8-17.3,46.1
			c-2.4,5.5-4.9,10.2-7.6,14.1c-2.6,3.9-5.5,7.2-8.6,9.7c-3.2,2.5-6.7,4.4-10.6,5.6s-8.4,1.8-13.4,1.8c-1.3,0-2.7-0.1-4.2-0.3
			c-1.5-0.2-2.9-0.4-4.3-0.7c-1.4-0.3-2.7-0.6-3.8-1c-1.2-0.4-2-0.7-2.5-0.9L-7.3,472z"/>
	</g>
	<g class="st0">
		<path class="st1" d="M184.5,406.5c0,7.6-1.1,14.6-3.4,20.7c-2.2,6.2-5.5,11.5-9.7,15.8c-4.2,4.4-9.5,7.7-15.7,10.1
			s-13.2,3.5-21.1,3.5c-3.3,0-6.7-0.2-10.3-0.5c-3.6-0.3-7.1-0.7-10.6-1.2s-6.8-1.1-9.9-1.7c-3.2-0.7-5.9-1.4-8.4-2.1V317.5
			l27.2-4.4v47.7c3-1.3,6.2-2.4,9.5-3.1s6.8-1.1,10.6-1.1c6.8,0,12.8,1.2,18,3.5c5.2,2.4,9.6,5.7,13.1,10.1s6.2,9.6,8,15.7
			C183.7,392.1,184.5,398.9,184.5,406.5z M156.9,405.7c0-17.5-6.4-26.2-19.3-26.2c-2.8,0-5.6,0.4-8.3,1.1s-4.9,1.6-6.6,2.7v49.3
			c1.3,0.2,3,0.5,5.1,0.6c2.1,0.2,4.3,0.3,6.7,0.3c7.4,0,13-2.5,16.7-7.6C155,420.8,156.9,414.1,156.9,405.7z"/>
		<path class="st1" d="M295,406.3c0,7.5-1.1,14.4-3.3,20.7c-2.2,6.2-5.3,11.6-9.5,16c-4.1,4.4-9.1,7.9-14.8,10.3
			c-5.8,2.4-12.2,3.6-19.4,3.6c-7,0-13.4-1.2-19.2-3.6s-10.7-5.9-14.8-10.3s-7.3-9.8-9.6-16s-3.5-13.1-3.5-20.7
			c0-7.5,1.2-14.4,3.5-20.6c2.4-6.2,5.6-11.5,9.8-15.8c4.2-4.4,9.2-7.8,14.9-10.2c5.8-2.4,12-3.6,18.8-3.6c6.9,0,13.3,1.2,19,3.6
			c5.8,2.4,10.7,5.8,14.8,10.2c4.1,4.4,7.3,9.6,9.6,15.8C293.9,391.9,295,398.8,295,406.3z M267.4,406.3c0-8.4-1.7-15-5-19.7
			c-3.3-4.8-8.1-7.2-14.3-7.2s-11,2.4-14.4,7.2c-3.4,4.8-5.1,11.4-5.1,19.7s1.7,15,5.1,19.9c3.4,4.9,8.2,7.4,14.4,7.4
			s10.9-2.5,14.3-7.4C265.7,421.3,267.4,414.7,267.4,406.3z"/>
		<path class="st1" d="M315.9,361.9c4.6-1.3,10.6-2.6,17.8-3.7c7.3-1.2,14.9-1.7,22.9-1.7c8.1,0,14.9,1.1,20.3,3.2s9.7,5.1,12.8,9
			c3.2,3.9,5.4,8.5,6.7,13.8c1.3,5.3,2,11.3,2,17.8v54.1h-27.1v-50.8c0-8.7-1.2-14.9-3.5-18.6c-2.3-3.6-6.6-5.5-12.9-5.5
			c-1.9,0-4,0.1-6.2,0.3c-2.2,0.2-4.1,0.4-5.8,0.6v73.9h-27.1v-92.4L315.9,361.9L315.9,361.9z"/>
		<path class="st1" d="M507.5,451.2c-2.4,0.7-5.2,1.4-8.4,2.1c-3.2,0.7-6.5,1.2-9.9,1.7c-3.5,0.5-7,0.9-10.6,1.2
			c-3.6,0.3-7,0.5-10.3,0.5c-7.9,0-14.9-1.2-21.1-3.5s-11.4-5.6-15.7-9.9c-4.2-4.3-7.5-9.5-9.7-15.7c-2.2-6.1-3.4-13-3.4-20.7
			c0-7.8,1-14.8,2.9-21s4.7-11.6,8.4-15.9c3.6-4.4,8.1-7.7,13.4-10s11.3-3.5,18.1-3.5c3.8,0,7.1,0.4,10.1,1.1s6,1.8,9,3.1v-43.3
			l27.1-4.4v138.2L507.5,451.2L507.5,451.2z M446.3,405.7c0,8.4,1.9,15.1,5.6,20.2c3.8,5.1,9.3,7.6,16.7,7.6c2.4,0,4.7-0.1,6.7-0.3
			c2.1-0.2,3.8-0.4,5.1-0.6v-49.3c-1.7-1.1-3.9-2-6.6-2.7s-5.5-1.1-8.3-1.1C452.7,379.5,446.3,388.3,446.3,405.7z"/>
	</g>
</g>
</svg>
